<svg width="137" height="40" viewBox="0 0 137 40" fill="none" xmlns="http://www.w3.org/2000/svg">








<path d="M19.9395 6.6751C19.1751 3.24773 17.2604 0.459856 16.9939 0C16.5801 0.639487 15.0512 3.10403 14.2727 5.83442C13.4241 8.88097 13.2978 11.5826 13.5924 14.2412C13.88 16.8997 14.9811 19.6373 14.9811 19.6373C15.5632 21.0743 16.4398 22.6048 17.0079 23.3592C17.8425 22.2455 19.7572 18.9403 20.3533 14.6148C20.683 12.2077 20.704 10.1025 19.9395 6.6751ZM16.9939 22.5114C16.6222 21.7857 16.0331 20.4061 15.977 18.2721C15.9629 16.2099 16.7695 14.4424 17.0009 14.0759C17.2113 14.4424 17.9056 15.98 17.9898 18.0853C18.0459 20.1474 17.3796 21.7641 16.9939 22.5042V22.5114ZM19.7151 12.4951C19.6871 13.8029 19.5328 15.1824 19.3364 16.0087C19.4065 14.5861 19.2382 12.5814 18.9226 11.015C18.6 9.4486 17.7023 6.83317 16.9799 5.61887C16.3136 6.76851 15.493 9.03186 15.0652 11.0006C14.6304 12.9622 14.6234 15.3405 14.6234 16.0518C14.5112 15.4483 14.2236 13.3071 14.3008 11.1587C14.3709 9.38393 14.7707 7.55888 14.9951 6.71821C15.8437 3.91596 16.8045 2.11965 16.9799 1.83942C17.1622 2.12683 18.3685 4.33271 18.9927 6.64636C19.6169 8.96719 19.7432 11.1874 19.7151 12.4951Z" fill="#0070BA"/><path d="M18.291 24.1654H12.4768V28.1604C12.4768 28.1604 12.4839 28.146 12.4909 28.146C13.8585 26.7449 16.0817 26.7449 17.4494 28.146C18.817 29.5471 18.817 31.8248 17.4494 33.226C17.4494 33.226 17.4353 33.2332 17.4283 33.2403C17.4283 33.2403 17.4143 33.2547 17.4073 33.2619C16.0397 34.6486 14.2583 35.3456 12.4698 35.3456C10.6814 35.3456 8.88598 34.6415 7.51837 33.2403C5.10576 30.7686 4.82522 26.9461 6.66273 24.1582C6.9082 23.7846 7.19575 23.4253 7.51837 23.0876C8.88598 21.6865 10.6814 20.9895 12.4698 20.9895V11.3828C5.58267 11.3828 0 17.1095 0 24.1654C0 31.2213 5.58267 36.9479 12.4768 36.9479C16.0677 36.9479 19.3079 35.3887 21.5802 32.9026V24.1654H18.291Z" fill="#0070BA"/>

<path d="M133.739 21.0898H81.103C79.3019 21.0898 77.8418 22.5857 77.8418 24.431V36.6603C77.8418 38.5055 79.3019 40.0014 81.103 40.0014H133.739C135.54 40.0014 137 38.5055 137 36.6603V24.431C137 22.5857 135.54 21.0898 133.739 21.0898Z" fill="url(#paint0_linear_13998_24556)"/><path d="M87.6316 24.1602V26.4523H83.8513V29.0821H85.2049C86.9723 29.0821 88.8519 29.8796 88.8519 33.0268C88.8519 36.1739 86.9443 36.9212 85.2049 36.9212H80.8496V24.1602H87.6316ZM83.8513 34.6291H84.3703C85.24 34.6291 85.8432 34.3273 85.8432 33.0627C85.8432 31.7981 85.1699 31.3741 84.4194 31.3741H83.8443V34.6291H83.8513Z" fill="white"/>




<path d="M100.123 27.6163V33.1058C100.123 35.5416 98.889 36.9571 96.0837 36.9571C93.2783 36.9571 92.0439 35.5416 92.0439 33.1058V27.6019C92.0439 25.6762 93.2783 24.1602 96.1047 24.1602C98.9311 24.1602 100.13 25.7122 100.13 27.6234L100.123 27.6163ZM95.0387 27.2642V33.7381C95.0387 34.4997 95.5577 34.8734 96.0767 34.8734C96.5956 34.8734 97.1146 34.4997 97.1146 33.7381V27.2642C97.1146 26.5385 96.5746 26.2151 96.0767 26.2151C95.5787 26.2151 95.0387 26.5385 95.0387 27.2642Z" fill="white"/><path d="M106.47 29.0821H108.434V24.1602H111.435V36.9212H108.434V31.4963H106.47V36.9212H103.468V24.1602H106.47V29.0821Z" fill="white"/><path d="M117.369 24.1602L118.498 29.7215C118.582 30.1814 118.582 31.0221 118.652 32.3513H118.687C118.792 31.0005 118.876 30.203 118.982 29.7215L120.146 24.1602H123.253L120.581 33.9896C119.907 36.4613 119.192 37.0649 117.095 37.0649C116.541 37.0649 115.826 36.9427 115.587 36.7272V34.5572C115.727 34.6075 116.036 34.6434 116.331 34.6434C116.576 34.6434 116.906 34.6291 117.039 34.2195L114.227 24.1602H117.369Z" fill="white"/><path d="M134.005 31.8262V32.9686C134.005 35.7493 132.722 36.9565 129.945 36.9565C127.167 36.9565 125.884 35.7637 125.884 32.9543V27.6156C125.884 25.69 127.097 24.1523 129.945 24.1523C132.792 24.1523 134.005 25.7187 134.005 27.63V28.4635H131.004V27.357C131.004 26.7103 130.379 26.4013 129.909 26.4013C129.405 26.4013 128.886 26.6744 128.886 27.3067V33.4069C128.886 34.3267 129.285 34.7003 129.909 34.7003C130.534 34.7003 131.004 34.3626 131.004 33.4357V31.819H134.005V31.8262Z" fill="white"/>
</svg>