<svg width="1024" height="1024" viewBox="0 0 1024 1024" fill="none" xmlns="http://www.w3.org/2000/svg">
<path d="M1024 0H0V1024H1024V0Z" fill="#065F46"/>
<path d="M359.059 181H664.941C681.112 181 697 196.226 697 218.632V613.368C697 635.774 681.112 651 664.941 651H359.059C342.888 651 327 635.774 327 613.368V218.632L327.012 217.587C327.497 195.754 343.14 181 359.059 181Z" fill="#065F46" stroke="white" stroke-width="30"/>
<path d="M359.059 181H664.941C681.112 181 697 196.226 697 218.632V613.368C697 635.774 681.112 651 664.941 651H359.059C342.888 651 327 635.774 327 613.368V218.632L327.012 217.587C327.497 195.754 343.14 181 359.059 181Z" fill="#065F46" stroke="white" stroke-width="30"/>
<path d="M152.189 737.4H172.925V827H152.189V737.4ZM111.485 827H90.749V737.4H111.485V827ZM153.725 790.264H109.949V772.728H153.725V790.264ZM234.956 827V813.56L233.676 810.616V786.552C233.676 782.285 232.353 778.957 229.708 776.568C227.148 774.179 223.18 772.984 217.804 772.984C214.135 772.984 210.508 773.581 206.924 774.776C203.425 775.885 200.439 777.421 197.964 779.384L190.796 765.432C194.551 762.787 199.073 760.739 204.364 759.288C209.655 757.837 215.031 757.112 220.492 757.112C230.988 757.112 239.137 759.587 244.94 764.536C250.743 769.485 253.644 777.208 253.644 787.704V827H234.956ZM213.964 828.024C208.588 828.024 203.98 827.128 200.14 825.336C196.3 823.459 193.356 820.941 191.308 817.784C189.26 814.627 188.236 811.085 188.236 807.16C188.236 803.064 189.217 799.48 191.18 796.408C193.228 793.336 196.428 790.947 200.78 789.24C205.132 787.448 210.807 786.552 217.804 786.552H236.108V798.2H219.98C215.287 798.2 212.044 798.968 210.252 800.504C208.545 802.04 207.692 803.96 207.692 806.264C207.692 808.824 208.673 810.872 210.636 812.408C212.684 813.859 215.457 814.584 218.956 814.584C222.284 814.584 225.271 813.816 227.916 812.28C230.561 810.659 232.481 808.312 233.676 805.24L236.748 814.456C235.297 818.893 232.652 822.264 228.812 824.568C224.972 826.872 220.023 828.024 213.964 828.024ZM271.716 827V758.136H290.788V777.592L288.1 771.96C290.148 767.096 293.433 763.427 297.956 760.952C302.479 758.392 307.983 757.112 314.468 757.112V775.544C313.615 775.459 312.847 775.416 312.164 775.416C311.481 775.331 310.756 775.288 309.988 775.288C304.527 775.288 300.089 776.867 296.676 780.024C293.348 783.096 291.684 787.917 291.684 794.488V827H271.716ZM414.658 757.112C420.119 757.112 424.941 758.221 429.122 760.44C433.389 762.573 436.717 765.901 439.106 770.424C441.581 774.861 442.818 780.579 442.818 787.576V827H422.85V790.648C422.85 785.101 421.698 781.005 419.394 778.36C417.09 775.715 413.847 774.392 409.666 774.392C406.765 774.392 404.162 775.075 401.858 776.44C399.554 777.72 397.762 779.683 396.482 782.328C395.202 784.973 394.562 788.344 394.562 792.44V827H374.594V790.648C374.594 785.101 373.442 781.005 371.138 778.36C368.919 775.715 365.719 774.392 361.538 774.392C358.637 774.392 356.034 775.075 353.73 776.44C351.426 777.72 349.634 779.683 348.354 782.328C347.074 784.973 346.434 788.344 346.434 792.44V827H326.466V758.136H345.538V776.952L341.954 771.448C344.343 766.755 347.714 763.213 352.066 760.824C356.503 758.349 361.538 757.112 367.17 757.112C373.485 757.112 378.989 758.733 383.682 761.976C388.461 765.133 391.618 769.997 393.154 776.568L386.114 774.648C388.418 769.272 392.087 765.005 397.122 761.848C402.242 758.691 408.087 757.112 414.658 757.112ZM493.984 828.024C486.645 828.024 480.117 826.488 474.4 823.416C468.768 820.344 464.288 816.163 460.96 810.872C457.717 805.496 456.096 799.395 456.096 792.568C456.096 785.656 457.717 779.555 460.96 774.264C464.288 768.888 468.768 764.707 474.4 761.72C480.117 758.648 486.645 757.112 493.984 757.112C501.237 757.112 507.723 758.648 513.44 761.72C519.157 764.707 523.637 768.845 526.88 774.136C530.123 779.427 531.744 785.571 531.744 792.568C531.744 799.395 530.123 805.496 526.88 810.872C523.637 816.163 519.157 820.344 513.44 823.416C507.723 826.488 501.237 828.024 493.984 828.024ZM493.984 811.64C497.312 811.64 500.299 810.872 502.944 809.336C505.589 807.8 507.68 805.624 509.216 802.808C510.752 799.907 511.52 796.493 511.52 792.568C511.52 788.557 510.752 785.144 509.216 782.328C507.68 779.512 505.589 777.336 502.944 775.8C500.299 774.264 497.312 773.496 493.984 773.496C490.656 773.496 487.669 774.264 485.024 775.8C482.379 777.336 480.245 779.512 478.624 782.328C477.088 785.144 476.32 788.557 476.32 792.568C476.32 796.493 477.088 799.907 478.624 802.808C480.245 805.624 482.379 807.8 485.024 809.336C487.669 810.872 490.656 811.64 493.984 811.64ZM586.947 757.112C592.408 757.112 597.272 758.221 601.539 760.44C605.891 762.573 609.304 765.901 611.779 770.424C614.254 774.861 615.491 780.579 615.491 787.576V827H595.523V790.648C595.523 785.101 594.286 781.005 591.811 778.36C589.422 775.715 586.008 774.392 581.571 774.392C578.414 774.392 575.555 775.075 572.995 776.44C570.52 777.72 568.558 779.725 567.107 782.456C565.742 785.187 565.059 788.685 565.059 792.952V827H545.091V758.136H564.163V777.208L560.579 771.448C563.054 766.84 566.595 763.299 571.203 760.824C575.811 758.349 581.059 757.112 586.947 757.112ZM641.045 852.856C637.461 852.856 633.92 852.301 630.421 851.192C626.922 850.083 624.064 848.547 621.845 846.584L629.141 832.376C630.677 833.741 632.426 834.808 634.389 835.576C636.437 836.344 638.442 836.728 640.405 836.728C643.221 836.728 645.44 836.045 647.061 834.68C648.768 833.4 650.304 831.224 651.669 828.152L655.253 819.704L656.789 817.528L681.493 758.136H700.693L669.589 831.224C667.37 836.771 664.81 841.123 661.909 844.28C659.093 847.437 655.936 849.656 652.437 850.936C649.024 852.216 645.226 852.856 641.045 852.856ZM652.821 829.688L622.101 758.136H642.709L666.517 815.736L652.821 829.688ZM731.009 828.024C725.121 828.024 719.446 827.341 713.985 825.976C708.609 824.525 704.342 822.733 701.185 820.6L707.841 806.264C710.998 808.227 714.71 809.848 718.977 811.128C723.329 812.323 727.596 812.92 731.777 812.92C736.385 812.92 739.628 812.365 741.505 811.256C743.468 810.147 744.449 808.611 744.449 806.648C744.449 805.027 743.681 803.832 742.145 803.064C740.694 802.211 738.732 801.571 736.257 801.144C733.782 800.717 731.052 800.291 728.065 799.864C725.164 799.437 722.22 798.883 719.233 798.2C716.246 797.432 713.516 796.323 711.041 794.872C708.566 793.421 706.561 791.459 705.025 788.984C703.574 786.509 702.849 783.309 702.849 779.384C702.849 775.032 704.086 771.192 706.561 767.864C709.121 764.536 712.79 761.933 717.569 760.056C722.348 758.093 728.065 757.112 734.721 757.112C739.414 757.112 744.193 757.624 749.057 758.648C753.921 759.672 757.974 761.165 761.217 763.128L754.561 777.336C751.233 775.373 747.862 774.051 744.449 773.368C741.121 772.6 737.878 772.216 734.721 772.216C730.284 772.216 727.041 772.813 724.993 774.008C722.945 775.203 721.921 776.739 721.921 778.616C721.921 780.323 722.646 781.603 724.097 782.456C725.633 783.309 727.638 783.992 730.113 784.504C732.588 785.016 735.276 785.485 738.177 785.912C741.164 786.253 744.15 786.808 747.137 787.576C750.124 788.344 752.812 789.453 755.201 790.904C757.676 792.269 759.681 794.189 761.217 796.664C762.753 799.053 763.521 802.211 763.521 806.136C763.521 810.403 762.241 814.2 759.681 817.528C757.121 820.771 753.409 823.331 748.545 825.208C743.766 827.085 737.921 828.024 731.009 828.024ZM804.897 828.024C799.18 828.024 794.06 826.915 789.537 824.696C785.1 822.477 781.644 819.107 779.169 814.584C776.694 809.976 775.457 804.131 775.457 797.048V758.136H795.425V794.104C795.425 799.821 796.62 804.045 799.009 806.776C801.484 809.421 804.94 810.744 809.377 810.744C812.449 810.744 815.18 810.104 817.569 808.824C819.958 807.459 821.836 805.411 823.201 802.68C824.566 799.864 825.249 796.365 825.249 792.184V758.136H845.217V827H826.273V808.056L829.729 813.56C827.425 818.339 824.012 821.965 819.489 824.44C815.052 826.829 810.188 828.024 804.897 828.024ZM904.42 828.024C898.361 828.024 893.156 826.744 888.804 824.184C884.452 821.624 881.124 817.741 878.82 812.536C876.516 807.245 875.364 800.589 875.364 792.568C875.364 784.461 876.559 777.805 878.948 772.6C881.423 767.395 884.836 763.512 889.188 760.952C893.54 758.392 898.617 757.112 904.42 757.112C910.905 757.112 916.708 758.563 921.828 761.464C927.033 764.365 931.129 768.461 934.116 773.752C937.188 779.043 938.724 785.315 938.724 792.568C938.724 799.736 937.188 805.965 934.116 811.256C931.129 816.547 927.033 820.685 921.828 823.672C916.708 826.573 910.905 828.024 904.42 828.024ZM863.716 827V732.024H883.684V772.088L882.404 792.44L882.788 812.92V827H863.716ZM900.964 811.64C904.292 811.64 907.236 810.872 909.796 809.336C912.441 807.8 914.532 805.624 916.068 802.808C917.689 799.907 918.5 796.493 918.5 792.568C918.5 788.557 917.689 785.144 916.068 782.328C914.532 779.512 912.441 777.336 909.796 775.8C907.236 774.264 904.292 773.496 900.964 773.496C897.636 773.496 894.649 774.264 892.004 775.8C889.359 777.336 887.268 779.512 885.732 782.328C884.196 785.144 883.428 788.557 883.428 792.568C883.428 796.493 884.196 799.907 885.732 802.808C887.268 805.624 889.359 807.8 892.004 809.336C894.649 810.872 897.636 811.64 900.964 811.64Z" fill="white"/>
<path d="M381 273.727L406 301L461 241" stroke="white" stroke-width="24" stroke-linecap="round" stroke-linejoin="round"/>
<path d="M639.5 241H534.5C522.074 241 512 249.954 512 261C512 272.046 522.074 281 534.5 281H639.5C651.926 281 662 272.046 662 261C662 249.954 651.926 241 639.5 241Z" fill="white"/>
<path d="M481 376H383C371.402 376 362 384.954 362 396C362 407.046 371.402 416 383 416H481C492.598 416 502 407.046 502 396C502 384.954 492.598 376 481 376Z" fill="white"/>
<path d="M641 376H543C531.402 376 522 384.954 522 396C522 407.046 531.402 416 543 416H641C652.598 416 662 407.046 662 396C662 384.954 652.598 376 641 376Z" fill="white"/>
<path d="M481 568H383C371.402 568 362 576.954 362 588C362 599.046 371.402 608 383 608H481C492.598 608 502 599.046 502 588C502 576.954 492.598 568 481 568Z" fill="white"/>
<path d="M580 568H482C470.402 568 461 576.954 461 588C461 599.046 470.402 608 482 608H580C591.598 608 601 599.046 601 588C601 576.954 591.598 568 580 568Z" fill="white"/>
<path d="M641 568H543C531.402 568 522 576.954 522 588C522 599.046 531.402 608 543 608H641C652.598 608 662 599.046 662 588C662 576.954 652.598 568 641 568Z" fill="white"/>
<path d="M481 472H383C371.402 472 362 480.954 362 492C362 503.046 371.402 512 383 512H481C492.598 512 502 503.046 502 492C502 480.954 492.598 472 481 472Z" fill="white"/>
<path d="M580 472H482C470.402 472 461 480.954 461 492C461 503.046 470.402 512 482 512H580C591.598 512 601 503.046 601 492C601 480.954 591.598 472 580 472Z" fill="white"/>
<path d="M641 472H543C531.402 472 522 480.954 522 492C522 503.046 531.402 512 543 512H641C652.598 512 662 503.046 662 492C662 480.954 652.598 472 641 472Z" fill="white"/>
<path d="M1024 0H0V1024H1024V0Z" fill="#065F46"/>
<path d="M361.412 181H682.588C700.186 181 717 197.31 717 220.737V631.263C717 654.69 700.186 671 682.588 671H361.412C343.814 671 327 654.69 327 631.263V220.737C327 197.31 343.814 181 361.412 181Z" fill="#065F46" stroke="white" stroke-width="30"/>
<path d="M152.189 737.4H172.925V827H152.189V737.4ZM111.485 827H90.749V737.4H111.485V827ZM153.725 790.264H109.949V772.728H153.725V790.264ZM234.956 827V813.56L233.676 810.616V786.552C233.676 782.285 232.353 778.957 229.708 776.568C227.148 774.179 223.18 772.984 217.804 772.984C214.135 772.984 210.508 773.581 206.924 774.776C203.425 775.885 200.439 777.421 197.964 779.384L190.796 765.432C194.551 762.787 199.073 760.739 204.364 759.288C209.655 757.837 215.031 757.112 220.492 757.112C230.988 757.112 239.137 759.587 244.94 764.536C250.743 769.485 253.644 777.208 253.644 787.704V827H234.956ZM213.964 828.024C208.588 828.024 203.98 827.128 200.14 825.336C196.3 823.459 193.356 820.941 191.308 817.784C189.26 814.627 188.236 811.085 188.236 807.16C188.236 803.064 189.217 799.48 191.18 796.408C193.228 793.336 196.428 790.947 200.78 789.24C205.132 787.448 210.807 786.552 217.804 786.552H236.108V798.2H219.98C215.287 798.2 212.044 798.968 210.252 800.504C208.545 802.04 207.692 803.96 207.692 806.264C207.692 808.824 208.673 810.872 210.636 812.408C212.684 813.859 215.457 814.584 218.956 814.584C222.284 814.584 225.271 813.816 227.916 812.28C230.561 810.659 232.481 808.312 233.676 805.24L236.748 814.456C235.297 818.893 232.652 822.264 228.812 824.568C224.972 826.872 220.023 828.024 213.964 828.024ZM271.716 827V758.136H290.788V777.592L288.1 771.96C290.148 767.096 293.433 763.427 297.956 760.952C302.479 758.392 307.983 757.112 314.468 757.112V775.544C313.615 775.459 312.847 775.416 312.164 775.416C311.481 775.331 310.756 775.288 309.988 775.288C304.527 775.288 300.089 776.867 296.676 780.024C293.348 783.096 291.684 787.917 291.684 794.488V827H271.716ZM414.658 757.112C420.119 757.112 424.941 758.221 429.122 760.44C433.389 762.573 436.717 765.901 439.106 770.424C441.581 774.861 442.818 780.579 442.818 787.576V827H422.85V790.648C422.85 785.101 421.698 781.005 419.394 778.36C417.09 775.715 413.847 774.392 409.666 774.392C406.765 774.392 404.162 775.075 401.858 776.44C399.554 777.72 397.762 779.683 396.482 782.328C395.202 784.973 394.562 788.344 394.562 792.44V827H374.594V790.648C374.594 785.101 373.442 781.005 371.138 778.36C368.919 775.715 365.719 774.392 361.538 774.392C358.637 774.392 356.034 775.075 353.73 776.44C351.426 777.72 349.634 779.683 348.354 782.328C347.074 784.973 346.434 788.344 346.434 792.44V827H326.466V758.136H345.538V776.952L341.954 771.448C344.343 766.755 347.714 763.213 352.066 760.824C356.503 758.349 361.538 757.112 367.17 757.112C373.485 757.112 378.989 758.733 383.682 761.976C388.461 765.133 391.618 769.997 393.154 776.568L386.114 774.648C388.418 769.272 392.087 765.005 397.122 761.848C402.242 758.691 408.087 757.112 414.658 757.112ZM493.984 828.024C486.645 828.024 480.117 826.488 474.4 823.416C468.768 820.344 464.288 816.163 460.96 810.872C457.717 805.496 456.096 799.395 456.096 792.568C456.096 785.656 457.717 779.555 460.96 774.264C464.288 768.888 468.768 764.707 474.4 761.72C480.117 758.648 486.645 757.112 493.984 757.112C501.237 757.112 507.723 758.648 513.44 761.72C519.157 764.707 523.637 768.845 526.88 774.136C530.123 779.427 531.744 785.571 531.744 792.568C531.744 799.395 530.123 805.496 526.88 810.872C523.637 816.163 519.157 820.344 513.44 823.416C507.723 826.488 501.237 828.024 493.984 828.024ZM493.984 811.64C497.312 811.64 500.299 810.872 502.944 809.336C505.589 807.8 507.68 805.624 509.216 802.808C510.752 799.907 511.52 796.493 511.52 792.568C511.52 788.557 510.752 785.144 509.216 782.328C507.68 779.512 505.589 777.336 502.944 775.8C500.299 774.264 497.312 773.496 493.984 773.496C490.656 773.496 487.669 774.264 485.024 775.8C482.379 777.336 480.245 779.512 478.624 782.328C477.088 785.144 476.32 788.557 476.32 792.568C476.32 796.493 477.088 799.907 478.624 802.808C480.245 805.624 482.379 807.8 485.024 809.336C487.669 810.872 490.656 811.64 493.984 811.64ZM586.947 757.112C592.408 757.112 597.272 758.221 601.539 760.44C605.891 762.573 609.304 765.901 611.779 770.424C614.254 774.861 615.491 780.579 615.491 787.576V827H595.523V790.648C595.523 785.101 594.286 781.005 591.811 778.36C589.422 775.715 586.008 774.392 581.571 774.392C578.414 774.392 575.555 775.075 572.995 776.44C570.52 777.72 568.558 779.725 567.107 782.456C565.742 785.187 565.059 788.685 565.059 792.952V827H545.091V758.136H564.163V777.208L560.579 771.448C563.054 766.84 566.595 763.299 571.203 760.824C575.811 758.349 581.059 757.112 586.947 757.112ZM641.045 852.856C637.461 852.856 633.92 852.301 630.421 851.192C626.922 850.083 624.064 848.547 621.845 846.584L629.141 832.376C630.677 833.741 632.426 834.808 634.389 835.576C636.437 836.344 638.442 836.728 640.405 836.728C643.221 836.728 645.44 836.045 647.061 834.68C648.768 833.4 650.304 831.224 651.669 828.152L655.253 819.704L656.789 817.528L681.493 758.136H700.693L669.589 831.224C667.37 836.771 664.81 841.123 661.909 844.28C659.093 847.437 655.936 849.656 652.437 850.936C649.024 852.216 645.226 852.856 641.045 852.856ZM652.821 829.688L622.101 758.136H642.709L666.517 815.736L652.821 829.688ZM731.009 828.024C725.121 828.024 719.446 827.341 713.985 825.976C708.609 824.525 704.342 822.733 701.185 820.6L707.841 806.264C710.998 808.227 714.71 809.848 718.977 811.128C723.329 812.323 727.596 812.92 731.777 812.92C736.385 812.92 739.628 812.365 741.505 811.256C743.468 810.147 744.449 808.611 744.449 806.648C744.449 805.027 743.681 803.832 742.145 803.064C740.694 802.211 738.732 801.571 736.257 801.144C733.782 800.717 731.052 800.291 728.065 799.864C725.164 799.437 722.22 798.883 719.233 798.2C716.246 797.432 713.516 796.323 711.041 794.872C708.566 793.421 706.561 791.459 705.025 788.984C703.574 786.509 702.849 783.309 702.849 779.384C702.849 775.032 704.086 771.192 706.561 767.864C709.121 764.536 712.79 761.933 717.569 760.056C722.348 758.093 728.065 757.112 734.721 757.112C739.414 757.112 744.193 757.624 749.057 758.648C753.921 759.672 757.974 761.165 761.217 763.128L754.561 777.336C751.233 775.373 747.862 774.051 744.449 773.368C741.121 772.6 737.878 772.216 734.721 772.216C730.284 772.216 727.041 772.813 724.993 774.008C722.945 775.203 721.921 776.739 721.921 778.616C721.921 780.323 722.646 781.603 724.097 782.456C725.633 783.309 727.638 783.992 730.113 784.504C732.588 785.016 735.276 785.485 738.177 785.912C741.164 786.253 744.15 786.808 747.137 787.576C750.124 788.344 752.812 789.453 755.201 790.904C757.676 792.269 759.681 794.189 761.217 796.664C762.753 799.053 763.521 802.211 763.521 806.136C763.521 810.403 762.241 814.2 759.681 817.528C757.121 820.771 753.409 823.331 748.545 825.208C743.766 827.085 737.921 828.024 731.009 828.024ZM804.897 828.024C799.18 828.024 794.06 826.915 789.537 824.696C785.1 822.477 781.644 819.107 779.169 814.584C776.694 809.976 775.457 804.131 775.457 797.048V758.136H795.425V794.104C795.425 799.821 796.62 804.045 799.009 806.776C801.484 809.421 804.94 810.744 809.377 810.744C812.449 810.744 815.18 810.104 817.569 808.824C819.958 807.459 821.836 805.411 823.201 802.68C824.566 799.864 825.249 796.365 825.249 792.184V758.136H845.217V827H826.273V808.056L829.729 813.56C827.425 818.339 824.012 821.965 819.489 824.44C815.052 826.829 810.188 828.024 804.897 828.024ZM904.42 828.024C898.361 828.024 893.156 826.744 888.804 824.184C884.452 821.624 881.124 817.741 878.82 812.536C876.516 807.245 875.364 800.589 875.364 792.568C875.364 784.461 876.559 777.805 878.948 772.6C881.423 767.395 884.836 763.512 889.188 760.952C893.54 758.392 898.617 757.112 904.42 757.112C910.905 757.112 916.708 758.563 921.828 761.464C927.033 764.365 931.129 768.461 934.116 773.752C937.188 779.043 938.724 785.315 938.724 792.568C938.724 799.736 937.188 805.965 934.116 811.256C931.129 816.547 927.033 820.685 921.828 823.672C916.708 826.573 910.905 828.024 904.42 828.024ZM863.716 827V732.024H883.684V772.088L882.404 792.44L882.788 812.92V827H863.716ZM900.964 811.64C904.292 811.64 907.236 810.872 909.796 809.336C912.441 807.8 914.532 805.624 916.068 802.808C917.689 799.907 918.5 796.493 918.5 792.568C918.5 788.557 917.689 785.144 916.068 782.328C914.532 779.512 912.441 777.336 909.796 775.8C907.236 774.264 904.292 773.496 900.964 773.496C897.636 773.496 894.649 774.264 892.004 775.8C889.359 777.336 887.268 779.512 885.732 782.328C884.196 785.144 883.428 788.557 883.428 792.568C883.428 796.493 884.196 799.907 885.732 802.808C887.268 805.624 889.359 807.8 892.004 809.336C894.649 810.872 897.636 811.64 900.964 811.64Z" fill="white"/>
<path d="M391 274.727L419.125 302L481 242" stroke="white" stroke-width="28" stroke-linecap="round" stroke-linejoin="round"/>
<path d="M649.5 252H544.5C532.074 252 522 260.954 522 272C522 283.046 532.074 292 544.5 292H649.5C661.926 292 672 283.046 672 272C672 260.954 661.926 252 649.5 252Z" fill="white"/>
<path d="M491 377H393C381.402 377 372 385.954 372 397C372 408.046 381.402 417 393 417H491C502.598 417 512 408.046 512 397C512 385.954 502.598 377 491 377Z" fill="white"/>
<path d="M651 377H553C541.402 377 532 385.954 532 397C532 408.046 541.402 417 553 417H651C662.598 417 672 408.046 672 397C672 385.954 662.598 377 651 377Z" fill="white"/>
<path d="M491 569H393C381.402 569 372 577.954 372 589C372 600.046 381.402 609 393 609H491C502.598 609 512 600.046 512 589C512 577.954 502.598 569 491 569Z" fill="white"/>
<path d="M590 569H492C480.402 569 471 577.954 471 589C471 600.046 480.402 609 492 609H590C601.598 609 611 600.046 611 589C611 577.954 601.598 569 590 569Z" fill="white"/>
<path d="M651 569H553C541.402 569 532 577.954 532 589C532 600.046 541.402 609 553 609H651C662.598 609 672 600.046 672 589C672 577.954 662.598 569 651 569Z" fill="white"/>
<path d="M491 473H393C381.402 473 372 481.954 372 493C372 504.046 381.402 513 393 513H491C502.598 513 512 504.046 512 493C512 481.954 502.598 473 491 473Z" fill="white"/>
<path d="M590 473H492C480.402 473 471 481.954 471 493C471 504.046 480.402 513 492 513H590C601.598 513 611 504.046 611 493C611 481.954 601.598 473 590 473Z" fill="white"/>
<path d="M651 473H553C541.402 473 532 481.954 532 493C532 504.046 541.402 513 553 513H651C662.598 513 672 504.046 672 493C672 481.954 662.598 473 651 473Z" fill="white"/>
</svg>
