<svg width="650" height="200" viewBox="0 0 650 200" fill="none" xmlns="http://www.w3.org/2000/svg">
<rect width="650" height="200" fill="#065F46"/>
<path d="M181.888 75.6H193.552V126H181.888V75.6ZM158.992 126H147.328V75.6H158.992V126ZM182.752 105.336H158.128V95.472H182.752V105.336ZM228.444 126V118.44L227.724 116.784V103.248C227.724 100.848 226.98 98.976 225.492 97.632C224.052 96.288 221.82 95.616 218.796 95.616C216.732 95.616 214.692 95.952 212.676 96.624C210.708 97.248 209.028 98.112 207.636 99.216L203.604 91.368C205.716 89.88 208.26 88.728 211.236 87.912C214.212 87.096 217.236 86.688 220.308 86.688C226.212 86.688 230.796 88.08 234.06 90.864C237.324 93.648 238.956 97.992 238.956 103.896V126H228.444ZM216.636 126.576C213.612 126.576 211.02 126.072 208.86 125.064C206.7 124.008 205.044 122.592 203.892 120.816C202.74 119.04 202.164 117.048 202.164 114.84C202.164 112.536 202.716 110.52 203.82 108.792C204.972 107.064 206.772 105.72 209.22 104.76C211.668 103.752 214.86 103.248 218.796 103.248H229.092V109.8H220.02C217.38 109.8 215.556 110.232 214.548 111.096C213.588 111.96 213.108 113.04 213.108 114.336C213.108 115.776 213.66 116.928 214.764 117.792C215.916 118.608 217.476 119.016 219.444 119.016C221.316 119.016 222.996 118.584 224.484 117.72C225.972 116.808 227.052 115.488 227.724 113.76L229.452 118.944C228.636 121.44 227.148 123.336 224.988 124.632C222.828 125.928 220.044 126.576 216.636 126.576ZM249.122 126V87.264H259.85V98.208L258.338 95.04C259.49 92.304 261.338 90.24 263.882 88.848C266.426 87.408 269.522 86.688 273.17 86.688V97.056C272.69 97.008 272.258 96.984 271.874 96.984C271.49 96.936 271.082 96.912 270.65 96.912C267.578 96.912 265.082 97.8 263.162 99.576C261.29 101.304 260.354 104.016 260.354 107.712V126H249.122ZM329.526 86.688C332.598 86.688 335.31 87.312 337.662 88.56C340.062 89.76 341.934 91.632 343.278 94.176C344.67 96.672 345.366 99.888 345.366 103.824V126H334.134V105.552C334.134 102.432 333.486 100.128 332.19 98.64C330.894 97.152 329.07 96.408 326.718 96.408C325.086 96.408 323.622 96.792 322.326 97.56C321.03 98.28 320.022 99.384 319.302 100.872C318.582 102.36 318.222 104.256 318.222 106.56V126H306.99V105.552C306.99 102.432 306.342 100.128 305.046 98.64C303.798 97.152 301.998 96.408 299.646 96.408C298.014 96.408 296.55 96.792 295.254 97.56C293.958 98.28 292.95 99.384 292.23 100.872C291.51 102.36 291.15 104.256 291.15 106.56V126H279.918V87.264H290.646V97.848L288.63 94.752C289.974 92.112 291.87 90.12 294.318 88.776C296.814 87.384 299.646 86.688 302.814 86.688C306.366 86.688 309.462 87.6 312.102 89.424C314.79 91.2 316.566 93.936 317.43 97.632L313.47 96.552C314.766 93.528 316.83 91.128 319.662 89.352C322.542 87.576 325.83 86.688 329.526 86.688ZM374.147 126.576C370.019 126.576 366.347 125.712 363.131 123.984C359.963 122.256 357.443 119.904 355.571 116.928C353.747 113.904 352.835 110.472 352.835 106.632C352.835 102.744 353.747 99.312 355.571 96.336C357.443 93.312 359.963 90.96 363.131 89.28C366.347 87.552 370.019 86.688 374.147 86.688C378.227 86.688 381.875 87.552 385.091 89.28C388.307 90.96 390.827 93.288 392.651 96.264C394.475 99.24 395.387 102.696 395.387 106.632C395.387 110.472 394.475 113.904 392.651 116.928C390.827 119.904 388.307 122.256 385.091 123.984C381.875 125.712 378.227 126.576 374.147 126.576ZM374.147 117.36C376.019 117.36 377.699 116.928 379.187 116.064C380.675 115.2 381.851 113.976 382.715 112.392C383.579 110.76 384.011 108.84 384.011 106.632C384.011 104.376 383.579 102.456 382.715 100.872C381.851 99.288 380.675 98.064 379.187 97.2C377.699 96.336 376.019 95.904 374.147 95.904C372.275 95.904 370.595 96.336 369.107 97.2C367.619 98.064 366.419 99.288 365.507 100.872C364.643 102.456 364.211 104.376 364.211 106.632C364.211 108.84 364.643 110.76 365.507 112.392C366.419 113.976 367.619 115.2 369.107 116.064C370.595 116.928 372.275 117.36 374.147 117.36ZM426.439 86.688C429.511 86.688 432.247 87.312 434.647 88.56C437.095 89.76 439.015 91.632 440.407 94.176C441.799 96.672 442.495 99.888 442.495 103.824V126H431.263V105.552C431.263 102.432 430.567 100.128 429.175 98.64C427.831 97.152 425.911 96.408 423.415 96.408C421.639 96.408 420.031 96.792 418.591 97.56C417.199 98.28 416.095 99.408 415.279 100.944C414.511 102.48 414.127 104.448 414.127 106.848V126H402.895V87.264H413.623V97.992L411.607 94.752C412.999 92.16 414.991 90.168 417.583 88.776C420.175 87.384 423.127 86.688 426.439 86.688ZM456.869 140.544C454.853 140.544 452.861 140.232 450.893 139.608C448.925 138.984 447.317 138.12 446.069 137.016L450.173 129.024C451.037 129.792 452.021 130.392 453.125 130.824C454.277 131.256 455.405 131.472 456.509 131.472C458.093 131.472 459.341 131.088 460.253 130.32C461.213 129.6 462.077 128.376 462.845 126.648L464.861 121.896L465.725 120.672L479.621 87.264H490.421L472.925 128.376C471.677 131.496 470.237 133.944 468.605 135.72C467.021 137.496 465.245 138.744 463.277 139.464C461.357 140.184 459.221 140.544 456.869 140.544ZM463.493 127.512L446.213 87.264H457.805L471.197 119.664L463.493 127.512ZM507.474 126.576C504.162 126.576 500.97 126.192 497.898 125.424C494.874 124.608 492.474 123.6 490.698 122.4L494.442 114.336C496.218 115.44 498.306 116.352 500.706 117.072C503.154 117.744 505.554 118.08 507.906 118.08C510.498 118.08 512.322 117.768 513.378 117.144C514.482 116.52 515.034 115.656 515.034 114.552C515.034 113.64 514.602 112.968 513.738 112.536C512.922 112.056 511.818 111.696 510.426 111.456C509.034 111.216 507.498 110.976 505.818 110.736C504.186 110.496 502.53 110.184 500.85 109.8C499.17 109.368 497.634 108.744 496.242 107.928C494.85 107.112 493.722 106.008 492.858 104.616C492.042 103.224 491.634 101.424 491.634 99.216C491.634 96.768 492.33 94.608 493.722 92.736C495.162 90.864 497.226 89.4 499.914 88.344C502.602 87.24 505.818 86.688 509.562 86.688C512.202 86.688 514.89 86.976 517.626 87.552C520.362 88.128 522.642 88.968 524.466 90.072L520.722 98.064C518.85 96.96 516.954 96.216 515.034 95.832C513.162 95.4 511.338 95.184 509.562 95.184C507.066 95.184 505.242 95.52 504.09 96.192C502.938 96.864 502.362 97.728 502.362 98.784C502.362 99.744 502.77 100.464 503.586 100.944C504.45 101.424 505.578 101.808 506.97 102.096C508.362 102.384 509.874 102.648 511.506 102.888C513.186 103.08 514.866 103.392 516.546 103.824C518.226 104.256 519.738 104.88 521.082 105.696C522.474 106.464 523.602 107.544 524.466 108.936C525.33 110.28 525.762 112.056 525.762 114.264C525.762 116.664 525.042 118.8 523.602 120.672C522.162 122.496 520.074 123.936 517.338 124.992C514.65 126.048 511.362 126.576 507.474 126.576ZM549.036 126.576C545.82 126.576 542.94 125.952 540.396 124.704C537.9 123.456 535.956 121.56 534.564 119.016C533.172 116.424 532.476 113.136 532.476 109.152V87.264H543.708V107.496C543.708 110.712 544.38 113.088 545.724 114.624C547.116 116.112 549.06 116.856 551.556 116.856C553.284 116.856 554.82 116.496 556.164 115.776C557.508 115.008 558.564 113.856 559.332 112.32C560.1 110.736 560.484 108.768 560.484 106.416V87.264H571.716V126H561.06V115.344L563.004 118.44C561.708 121.128 559.788 123.168 557.244 124.56C554.748 125.904 552.012 126.576 549.036 126.576ZM605.018 126.576C601.61 126.576 598.682 125.856 596.234 124.416C593.786 122.976 591.914 120.792 590.618 117.864C589.322 114.888 588.674 111.144 588.674 106.632C588.674 102.072 589.346 98.328 590.69 95.4C592.082 92.472 594.002 90.288 596.45 88.848C598.898 87.408 601.754 86.688 605.018 86.688C608.666 86.688 611.93 87.504 614.81 89.136C617.738 90.768 620.042 93.072 621.722 96.048C623.45 99.024 624.314 102.552 624.314 106.632C624.314 110.664 623.45 114.168 621.722 117.144C620.042 120.12 617.738 122.448 614.81 124.128C611.93 125.76 608.666 126.576 605.018 126.576ZM582.122 126V72.576H593.354V95.112L592.634 106.56L592.85 118.08V126H582.122ZM603.074 117.36C604.946 117.36 606.602 116.928 608.042 116.064C609.53 115.2 610.706 113.976 611.57 112.392C612.482 110.76 612.938 108.84 612.938 106.632C612.938 104.376 612.482 102.456 611.57 100.872C610.706 99.288 609.53 98.064 608.042 97.2C606.602 96.336 604.946 95.904 603.074 95.904C601.202 95.904 599.522 96.336 598.034 97.2C596.546 98.064 595.37 99.288 594.506 100.872C593.642 102.456 593.21 104.376 593.21 106.632C593.21 108.84 593.642 110.76 594.506 112.392C595.37 113.976 596.546 115.2 598.034 116.064C599.522 116.928 601.202 117.36 603.074 117.36Z" fill="white"/>
<path d="M34.8584 41H111.941C115.872 41.0001 119.8 44.7144 119.8 50.2627V149.737C119.8 155.286 115.872 159 111.941 159H34.8584C30.9276 159 27.0002 155.285 27 149.737V50.2627L27.0117 49.748C27.246 44.486 31.0504 41.0003 34.8584 41Z" fill="#065F46" stroke="white" stroke-width="8"/>
<path d="M43 65.1818L49.25 72L63 57" stroke="white" stroke-width="8" stroke-linecap="round" stroke-linejoin="round"/>
<path d="M106.3 60H79.7C76.552 60 74 62.2386 74 65C74 67.7614 76.552 70 79.7 70H106.3C109.448 70 112 67.7614 112 65C112 62.2386 109.448 60 106.3 60Z" fill="white"/>
<path d="M65.5881 89.9199H40.8921C37.9694 89.9199 35.6001 92.1764 35.6001 94.9599C35.6001 97.7434 37.9694 99.9999 40.8921 99.9999H65.5881C68.5108 99.9999 70.8801 97.7434 70.8801 94.9599C70.8801 92.1764 68.5108 89.9199 65.5881 89.9199Z" fill="white"/>
<path d="M105.908 89.9199H81.2119C78.2892 89.9199 75.9199 92.1764 75.9199 94.9599C75.9199 97.7434 78.2892 99.9999 81.2119 99.9999H105.908C108.831 99.9999 111.2 97.7434 111.2 94.9599C111.2 92.1764 108.831 89.9199 105.908 89.9199Z" fill="white"/>
<path d="M65.5881 138.304H40.8921C37.9694 138.304 35.6001 140.56 35.6001 143.344C35.6001 146.127 37.9694 148.384 40.8921 148.384H65.5881C68.5108 148.384 70.8801 146.127 70.8801 143.344C70.8801 140.56 68.5108 138.304 65.5881 138.304Z" fill="white"/>
<path d="M90.5359 138.304H65.8399C62.9172 138.304 60.5479 140.56 60.5479 143.344C60.5479 146.127 62.9172 148.384 65.8399 148.384H90.5359C93.4585 148.384 95.8279 146.127 95.8279 143.344C95.8279 140.56 93.4585 138.304 90.5359 138.304Z" fill="white"/>
<path d="M105.908 138.304H81.2119C78.2892 138.304 75.9199 140.56 75.9199 143.344C75.9199 146.127 78.2892 148.384 81.2119 148.384H105.908C108.831 148.384 111.2 146.127 111.2 143.344C111.2 140.56 108.831 138.304 105.908 138.304Z" fill="white"/>
<path d="M65.5881 114.112H40.8921C37.9694 114.112 35.6001 116.369 35.6001 119.152C35.6001 121.936 37.9694 124.192 40.8921 124.192H65.5881C68.5108 124.192 70.8801 121.936 70.8801 119.152C70.8801 116.369 68.5108 114.112 65.5881 114.112Z" fill="white"/>
<path d="M90.5359 114.112H65.8399C62.9172 114.112 60.5479 116.369 60.5479 119.152C60.5479 121.936 62.9172 124.192 65.8399 124.192H90.5359C93.4585 124.192 95.8279 121.936 95.8279 119.152C95.8279 116.369 93.4585 114.112 90.5359 114.112Z" fill="white"/>
<path d="M105.908 114.112H81.2119C78.2892 114.112 75.9199 116.369 75.9199 119.152C75.9199 121.936 78.2892 124.192 81.2119 124.192H105.908C108.831 124.192 111.2 121.936 111.2 119.152C111.2 116.369 108.831 114.112 105.908 114.112Z" fill="white"/>
</svg>
