<svg width="24" height="24" viewBox="0 0 24 24" fill="none" xmlns="http://www.w3.org/2000/svg">
<path fill-rule="evenodd" clip-rule="evenodd" d="M13.4497 12.4879V0.0878906C19.7565 0.855597 24.3719 6.40613 23.9763 12.7472C23.5806 19.0883 18.311 24.0221 11.9577 23.9998C11.5817 23.9998 11.2137 23.9838 10.8497 23.9478V13.5918C10.8486 13.5562 10.862 13.5215 10.8869 13.4959C10.9118 13.4703 10.946 13.4558 10.9817 13.4558H12.4697C13.0062 13.4559 13.4431 13.0244 13.4497 12.4879ZM13.1933 18.5439C12.3649 18.5439 11.6934 17.8724 11.6934 17.0439C11.6934 16.2155 12.3649 15.5439 13.1933 15.5439C14.0218 15.5439 14.6933 16.2155 14.6933 17.0439C14.6944 17.4421 14.5367 17.8242 14.2552 18.1058C13.9736 18.3873 13.5915 18.545 13.1933 18.5439ZM15.2101 17.0439C15.2101 17.8724 15.8816 18.5439 16.7101 18.5439C17.1082 18.545 17.4903 18.3873 17.7719 18.1058C18.0534 17.8242 18.2111 17.4421 18.21 17.0439C18.21 16.2155 17.5385 15.5439 16.7101 15.5439C15.8816 15.5439 15.2101 16.2155 15.2101 17.0439ZM18.7256 17.0439C18.7256 17.8724 19.3972 18.5439 20.2256 18.5439C20.6237 18.545 21.0059 18.3873 21.2874 18.1058C21.5689 17.8242 21.7266 17.4421 21.7256 17.0439C21.7256 16.2155 21.054 15.5439 20.2256 15.5439C19.3972 15.5439 18.7256 16.2155 18.7256 17.0439Z" fill="#00B956"/>
<path fill-rule="evenodd" clip-rule="evenodd" d="M0.0696084 10.716C0.723742 4.63706 5.84374 0.0218617 11.9577 0H11.9817V11.872C11.9796 11.9433 11.9211 12 11.8497 12H10.3457C9.82784 12.021 9.4159 12.4417 9.40575 12.96V23.7159C3.43638 22.3938 -0.584526 16.795 0.0696084 10.716ZM8.1582 8.39648C8.1582 9.2249 8.82977 9.89647 9.65819 9.89647C10.056 9.89647 10.4375 9.73844 10.7188 9.45714C11.0001 9.17583 11.1582 8.7943 11.1582 8.39648C11.1582 7.56806 10.4866 6.89648 9.65819 6.89648C8.82977 6.89648 8.1582 7.56806 8.1582 8.39648Z" fill="#00B956"/>
</svg>