<svg width="56" height="56" viewBox="0 0 56 56" fill="none" xmlns="http://www.w3.org/2000/svg">
<path d="M8.74122 17.697H0.5V25.8326H8.74122V17.697Z" fill="#FF3495"/>
<path d="M32.5697 39.8644H54.9582V48H32.5697V39.8644ZM42.6613 21.2963C45.2013 21.2963 47.2588 23.3274 47.2588 25.8348C47.2588 28.3422 45.2013 30.3733 42.6613 30.3733H32.5697V38.5089H42.6613C48.1209 38.5089 52.7964 35.1274 54.6483 30.3733C55.1991 28.963 55.5 27.4333 55.5 25.8348C55.5 18.8467 49.741 13.1607 42.6613 13.1607C35.5817 13.1607 29.8226 18.8459 29.8226 25.8348H38.0638C38.0638 23.3274 40.1213 21.2963 42.6613 21.2963Z" fill="white"/>
<path d="M18.3579 39.8644H31.1965V48H22.9553C15.8652 48 10.1166 42.3252 10.1166 35.3259V8H18.3579V17.6993H27.973V25.8348H18.3579V39.8644Z" fill="white"/>
</svg>