<svg class="" fill="none" xmlns="http://www.w3.org/2000/svg" viewBox="45 67 510 100"><path d="M52.0297 74.0294C45.2106 80.8486 45.0066 91.6995 45.0005 112.999C64.0885 112.999 76.0061 104.805 86.4598 97.6162C94.6264 92.0007 101.9 86.9994 111 86.9994C124.546 86.9994 136.373 96.5768 142.644 101.655C143.528 102.371 144.302 102.998 144.955 103.496C144.757 88.3094 143.692 79.7505 137.971 74.0294C130.941 67 119.628 67 97.0003 67L93.0003 67C70.3729 67 59.0592 67 52.0297 74.0294Z" fill="#0077FF"></path><path d="M90.0603 166.999C91.0185 167 91.9983 167 93.0003 167H97.0003C98.0022 167 98.9819 167 99.9401 166.999H90.0603Z" fill="#0077FF"></path><path d="M45.0002 112.999C64.0882 112.999 76.0058 104.805 86.4595 97.6162C94.6261 92.0007 101.899 86.9994 111 86.9994C124.545 86.9994 136.373 96.5768 142.644 101.655C143.528 102.371 144.302 102.998 144.955 103.496C145 106.969 145 110.788 145 115V119C145 141.627 145 152.941 137.971 159.971C131.252 166.689 120.621 166.986 99.939 166.999H90.0608C69.3793 166.986 58.7477 166.689 52.0294 159.971C45 152.941 45 141.627 45 119L45 115C45 114.323 45 113.656 45.0002 112.999Z" fill="#F45FFF"></path><path class="style_staticBar__a1Jzs" d="M122.5 117.975C122.5 115.504 124.529 113.5 127 113.5V113.5C129.472 113.5 131.5 115.504 131.5 117.975V136.025C131.5 138.497 129.472 140.5 127 140.5V140.5C124.529 140.5 122.5 138.497 122.5 136.025V117.975Z" fill="white"></path><path class="style_staticBar__a1Jzs" d="M106.501 106.475C106.501 104.004 108.53 102 111.001 102V102C113.472 102 115.501 104.004 115.501 106.475V147.525C115.501 149.997 113.472 152 111.001 152V152C108.53 152 106.501 149.997 106.501 147.525V106.475Z" fill="white"></path><path class="style_staticBar__a1Jzs" d="M90.501 117.975C90.501 115.504 92.5295 113.5 95.001 113.5V113.5C97.4725 113.5 99.501 115.504 99.501 117.975V136.025C99.501 138.496 97.4725 140.5 95.001 140.5V140.5C92.5295 140.5 90.501 138.496 90.501 136.025V117.975Z" fill="white"></path><path class="style_staticBar__a1Jzs" d="M74.499 124.475C74.499 122.003 76.5275 120 78.999 120V120C81.4705 120 83.499 122.003 83.499 124.475V129.525C83.499 131.996 81.4705 134 78.999 134V134C76.5275 134 74.499 131.996 74.499 129.525V124.475Z" fill="white"></path><path class="style_staticBar__a1Jzs" d="M58.499 124.475C58.499 122.003 60.5275 120 62.999 120V120C65.4705 120 67.499 122.003 67.499 124.475V129.525C67.499 131.996 65.4705 134 62.999 134V134C60.5275 134 58.499 131.996 58.499 129.525V124.475Z" fill="white"></path><rect class="style_bar__kDncd style_bar1__NzaFh" rx="4.5" x="0" y="0"></rect><rect class="style_bar__kDncd style_bar2__YqmrM" rx="4.5" x="0" y="0"></rect><rect class="style_bar__kDncd style_bar3__Qjw46" rx="4.5" x="0" y="0"></rect><rect class="style_bar__kDncd style_bar4__6x4Jh" rx="4.5" x="0" y="0"></rect><rect class="style_bar__kDncd style_bar5__8X4nc" rx="4.5" x="0" y="0"></rect></svg>